<svg width="16" height="16" viewBox="0 0 16 16" fill="none" xmlns="http://www.w3.org/2000/svg">
<circle cx="8" cy="8" r="8" fill="url(#paint0_linear_816_2337)"/>
<g clip-path="url(#clip0_816_2337)">
<path d="M8.39143 8.89446C8.46438 10.4985 8.19389 11.9428 7.0144 13.0936C6.87342 12.9526 6.73571 12.8149 6.5644 12.6436C7.72832 11.687 8.10537 10.4002 8.157 9.01495C8.00701 9.38052 7.87668 9.79609 7.67177 10.1707C7.4062 10.6584 6.97751 10.8362 6.47178 10.7428C5.98326 10.6535 5.72835 10.3166 5.60294 9.8715C5.55048 9.68462 5.47753 9.58708 5.2718 9.53298C4.80131 9.41003 4.45132 9.13053 4.37837 8.61168C4.30214 8.07316 4.5505 7.69202 5.00131 7.42727C5.64556 7.04941 6.36687 6.96417 7.08899 6.88384C7.20046 6.87154 7.31193 6.86581 7.3898 6.85925C6.86932 6.76663 6.31523 6.6904 5.77343 6.56253C5.48655 6.49532 5.20377 6.36581 4.94803 6.21582C4.51935 5.96418 4.30378 5.5773 4.37755 5.06665C4.44804 4.57731 4.76935 4.29617 5.21442 4.16502C5.43491 4.10027 5.55458 4.01667 5.61606 3.77896C5.73983 3.29946 6.05048 2.97898 6.56522 2.91996C7.0644 2.86258 7.42505 3.09701 7.67832 3.50848C8.05373 4.11667 8.15536 4.80354 8.23077 5.49615C8.24225 5.59779 8.24717 5.70025 8.3193 5.81254C8.32995 5.72402 8.34225 5.63632 8.35044 5.54779C8.41684 4.87485 8.51602 4.20847 8.84798 3.6052C9.16355 3.03307 9.62993 2.80931 10.1832 2.95193C10.6488 3.0716 10.8848 3.4134 10.9938 3.84782C11.0389 4.0265 11.1234 4.09535 11.2922 4.14125C11.7766 4.27076 12.1348 4.54617 12.2086 5.07813C12.2856 5.63386 12.0135 6.01254 11.5512 6.27483C10.9127 6.6363 10.2004 6.71991 9.48895 6.79941C9.3865 6.81089 9.28322 6.81827 9.16355 6.82974C9.66928 6.90925 10.1627 6.96089 10.6422 7.07236C10.9701 7.14859 11.2938 7.28055 11.5922 7.43875C12.0414 7.67727 12.2774 8.06497 12.2119 8.59201C12.1471 9.11249 11.8045 9.39774 11.3348 9.52724C11.1242 9.58544 11.0365 9.67888 10.9799 9.88134C10.8439 10.3674 10.5496 10.7035 10.0127 10.7584C9.47912 10.8133 9.10453 10.5559 8.87585 10.1092C8.68896 9.74773 8.56929 9.3502 8.39143 8.89446Z" fill="#23243C"/>
</g>
<defs>
<linearGradient id="paint0_linear_816_2337" x1="1.81818" y1="13.4545" x2="15.1819" y2="11.4984" gradientUnits="userSpaceOnUse">
<stop stop-color="#42AC26"/>
<stop offset="0.191" stop-color="#70F570"/>
</linearGradient>
<clipPath id="clip0_816_2337">
<rect width="7.85808" height="10.1818" fill="white" transform="translate(4.36353 2.91016)"/>
</clipPath>
</defs>
</svg>
