<svg width="18" height="18" viewBox="0 0 18 18" fill="none" xmlns="http://www.w3.org/2000/svg">
<g clip-path="url(#clip0_816_2384)">
<path d="M14.4844 12.3398C12.513 12.3398 10.9688 11.2589 10.9688 9.87891C10.9688 8.49895 12.513 7.41797 14.4844 7.41797C16.4558 7.41797 18 8.49895 18 9.87891C18 11.2589 16.4558 12.3398 14.4844 12.3398ZM14.4844 8.82422C13.8722 8.82422 13.2832 8.97289 12.8683 9.23217C12.5548 9.42813 12.375 9.66386 12.375 9.87891C12.375 10.094 12.5548 10.3297 12.8683 10.5256C13.2832 10.7849 13.8722 10.9336 14.4844 10.9336C15.0966 10.9336 15.6856 10.7849 16.1004 10.5256C16.414 10.3297 16.5938 10.094 16.5938 9.87891C16.5938 9.66386 16.414 9.42813 16.1004 9.23217C15.6856 8.97289 15.0966 8.82422 14.4844 8.82422ZM17.6741 17.0226C17.9886 16.7948 18.0589 16.3552 17.8311 16.0407C17.6034 15.7262 17.1637 15.6559 16.8493 15.8836C15.5483 16.8259 13.3501 16.8259 12.0491 15.8836C11.7347 15.6559 11.295 15.7262 11.0673 16.0407C10.8395 16.3551 10.9098 16.7948 11.2243 17.0226C12.0945 17.6529 13.2398 18 14.4492 18C15.6586 18 16.8039 17.6529 17.6741 17.0226ZM17.6741 14.1749C17.9886 13.9472 18.0589 13.5075 17.8311 13.193C17.6034 12.8785 17.1637 12.8082 16.8493 13.036C15.5483 13.9783 13.3501 13.9783 12.0491 13.036C11.7347 12.8082 11.295 12.8785 11.0673 13.193C10.8395 13.5075 10.9098 13.9471 11.2243 14.1749C12.0945 14.8052 13.2398 15.1523 14.4492 15.1523C15.6586 15.1523 16.8039 14.8052 17.6741 14.1749ZM9.73828 17.2969C9.73828 16.9085 9.42349 16.5938 9.03516 16.5938H4.21875C2.66794 16.5938 1.40625 15.3321 1.40625 13.7812V11.0998C1.40625 9.73649 2.02061 8.47083 3.09175 7.62743L5.60296 5.6501C5.88716 5.4263 5.95522 5.02334 5.76018 4.71864L4.01133 1.98605C3.9027 1.81631 3.96594 1.66103 3.99818 1.60214C4.03042 1.54322 4.12713 1.40625 4.32865 1.40625H13.0518C13.2527 1.40625 13.3495 1.54259 13.3818 1.60119C13.4141 1.6598 13.4776 1.81445 13.3702 1.98425L11.64 4.72201C11.4492 5.02386 11.515 5.42081 11.793 5.64497L12.8125 6.46717C13.1148 6.71094 13.5574 6.66352 13.8013 6.36121C14.045 6.05893 13.9976 5.61628 13.6953 5.37251L13.1635 4.94364L14.559 2.73554C14.9061 2.18633 14.927 1.49161 14.6135 0.92257C14.2999 0.353531 13.7015 0 13.0518 0H4.32865C3.67682 0 3.07751 0.355219 2.76455 0.927035C2.45162 1.49885 2.47549 2.19509 2.82688 2.74412L4.23204 4.93966L2.2218 6.52254C1.53345 7.06454 0.967395 7.76767 0.584824 8.55584C0.202219 9.34404 0 10.2238 0 11.0998V13.7812C0 16.1075 1.89253 18 4.21875 18H9.03516C9.42349 18 9.73828 17.6852 9.73828 17.2969ZM10.3359 5.09766C10.3359 4.70932 10.0211 4.39453 9.63281 4.39453H7.76953C7.3812 4.39453 7.06641 4.70932 7.06641 5.09766C7.06641 5.48599 7.3812 5.80078 7.76953 5.80078H9.63281C10.0211 5.80078 10.3359 5.48599 10.3359 5.09766Z" fill="url(#paint0_linear_816_2384)"/>
</g>
<defs>
<linearGradient id="paint0_linear_816_2384" x1="3.11702e-07" y1="14.0625" x2="18" y2="-2.17929e-07" gradientUnits="userSpaceOnUse">
<stop stop-color="#FFE324"/>
<stop offset="1" stop-color="#FFB533"/>
</linearGradient>
<clipPath id="clip0_816_2384">
<rect width="18" height="18" fill="white"/>
</clipPath>
</defs>
</svg>
