<svg width="17" height="16" viewBox="0 0 17 16" fill="none" xmlns="http://www.w3.org/2000/svg">
<path d="M14.919 13.3516L10.7601 9.29375C11.4054 8.47969 11.7545 7.48438 11.7545 6.4375C11.7545 5.18438 11.2533 4.00937 10.3469 3.12344C9.44048 2.2375 8.23301 1.75 6.95027 1.75C5.66753 1.75 4.46005 2.23906 3.55365 3.12344C2.64564 4.00781 2.146 5.18438 2.146 6.4375C2.146 7.68906 2.64724 8.86719 3.55365 9.75156C4.46005 10.6375 5.66593 11.125 6.95027 11.125C8.02322 11.125 9.04173 10.7844 9.87607 10.1562L14.035 14.2125C14.0472 14.2244 14.0616 14.2338 14.0776 14.2403C14.0935 14.2467 14.1106 14.2501 14.1278 14.2501C14.1451 14.2501 14.1622 14.2467 14.1781 14.2403C14.1941 14.2338 14.2085 14.2244 14.2207 14.2125L14.919 13.5328C14.9312 13.5209 14.9408 13.5068 14.9474 13.4912C14.954 13.4757 14.9574 13.459 14.9574 13.4422C14.9574 13.4254 14.954 13.4087 14.9474 13.3931C14.9408 13.3776 14.9312 13.3635 14.919 13.3516ZM9.48692 8.9125C8.80792 9.57344 7.90792 9.9375 6.95027 9.9375C5.99262 9.9375 5.09262 9.57344 4.41361 8.9125C3.73621 8.25 3.36308 7.37187 3.36308 6.4375C3.36308 5.50312 3.73621 4.62344 4.41361 3.9625C5.09262 3.30156 5.99262 2.9375 6.95027 2.9375C7.90792 2.9375 8.80952 3.3 9.48692 3.9625C10.1643 4.625 10.5375 5.50312 10.5375 6.4375C10.5375 7.37187 10.1643 8.25156 9.48692 8.9125Z" fill="#7B7AAE"/>
</svg>
